<svg version="1.1" id="SvgjsSvg1325" xmlns:svgjs="http://svgjs.com/svgjs"
	 xmlns="http://www.w3.org/2000/svg" xmlns:xlink="http://www.w3.org/1999/xlink" x="0px" y="0px" viewBox="0 0 86 135"
	 style="enable-background:new 0 0 86 135;" xml:space="preserve">
<path id="SvgjsPath1327" style="fill:#FFFFFF;" d="M5,2h76c1.7,0,3,1.3,3,3v76c0,1.7-1.3,3-3,3H5c-1.7,0-3-1.3-3-3V5
	C2,3.3,3.3,2,5,2z"/>
<g>
	<g>
		<defs>
			<path id="SVGID_1_" d="M0,86V0h86v86H0z M2,5v76c0,1.7,1.3,3,3,3h76c1.7,0,3-1.3,3-3V5c0-1.7-1.3-3-3-3H5C3.3,2,2,3.3,2,5z"/>
		</defs>
		<clipPath id="SVGID_2_">
			<use xlink:href="#SVGID_1_"  style="overflow:visible;"/>
		</clipPath>

			<path id="SvgjsPath1328" style="clip-path:url(#SVGID_2_);fill:#FFFFFF;fill-opacity:0;stroke:#BCDAFF;stroke-width:4;stroke-linecap:round;stroke-linejoin:round;stroke-miterlimit:50;stroke-dasharray:0;" d="
			M5,2h76c1.7,0,3,1.3,3,3v76c0,1.7-1.3,3-3,3H5c-1.7,0-3-1.3-3-3V5C2,3.3,3.3,2,5,2z"/>
	</g>
</g>
<path id="SvgjsPath1331" style="fill:#BCDAFF;" d="M32.1,48.8v-1.1l-0.9-0.2c-0.2-0.1-0.4-0.1-0.5-0.3l-4.5-12.8h-2.3l-4.4,12.8
	c-0.1,0.2-0.2,0.3-0.5,0.4l-0.9,0.2v1.1h4.6v-1.1l-1.6-0.2l1.1-3.2h5.6l1.1,3.2l-1.6,0.2v1.1h4.8V48.8z M24,69.8v-0.4
	c-0.5,0-0.8-0.1-1-0.2c-0.3-0.1-0.4-0.4-0.4-0.7c0-0.2,0-0.4,0.2-0.7c0.1-0.3,0.4-1.1,0.9-2.4H29l0.8,1.9c0.1,0.3,0.2,0.5,0.3,0.8
	c0.1,0.2,0.1,0.4,0.1,0.5c0,0.3-0.1,0.5-0.3,0.5c-0.2,0.1-0.5,0.1-1.1,0.2v0.4h5.1v-0.4c-0.5-0.1-0.8-0.2-1-0.4
	c-0.2-0.2-0.5-0.6-0.8-1.4l-5-11.3h-0.4L22.5,66c-0.6,1.5-1.1,2.4-1.3,2.7c-0.3,0.3-0.6,0.5-1.2,0.6v0.4L24,69.8L24,69.8z
	 M28.3,23.6l1.5,4.2h2l-5.2-13.9h-2.3l-5,13.9h1.8l1.5-4.2C22.6,23.6,28.3,23.6,28.3,23.6z M50.2,48.8c3.1,0,5.4-1,5.4-3.9
	c0-2-1.1-3.3-3.4-3.6v-0.1c1.2-0.4,2.4-1.5,2.4-3.4c0-2-0.9-3.5-4.4-3.5h-6v1.1l1.3,0.1c0.3,0,0.3,0.1,0.3,0.4v11.2
	c0,0.3,0,0.4-0.3,0.4l-1.3,0.1v1.1h6V48.8z M59.8,48.8l0.1-1H60c0.9,0.8,1.9,1.2,3.1,1.2c2.5,0,4.2-1.6,4.2-5.8c0-3.5-1.5-5-3.8-5
	c-1.4,0-2.5,0.6-3.4,1.2v-5.8H57l-0.2,1.1l1.2,0.4c0.2,0.1,0.3,0.2,0.3,0.4v10.4c0,1-0.1,2.1-0.2,2.9C58.1,48.8,59.8,48.8,59.8,48.8
	z M43.5,69.8H50c1.1,0,2.1-0.2,2.8-0.5c1.4-0.6,2.2-1.7,2.2-3.2c0-0.9-0.3-1.7-1-2.2c-0.6-0.5-1.4-0.9-2.4-1.1
	c0.8-0.2,1.3-0.4,1.7-0.7c0.7-0.5,1-1.2,1-2.2c0-1.3-0.5-2.1-1.4-2.7s-2.2-0.8-3.8-0.8h-5.6v0.4c0.8,0,1.3,0.2,1.6,0.4
	c0.2,0.2,0.3,0.7,0.3,1.4v8.9c0,0.7-0.1,1.2-0.3,1.4c-0.2,0.2-0.8,0.3-1.6,0.4V69.8z M44.8,27.8h5.5c2.6,0,4.6-1.5,4.6-4.1
	c0-2-1.5-3-2.5-3.3c1.1-0.4,2-1.4,2-3c0-1.9-1.4-3.5-4.3-3.5h-5.3V27.8z M57.3,24.4c0,1.1,0,2.3,0,3.4H59c0-0.3,0.1-0.8,0.1-1.3
	c0.5,1,1.4,1.6,3,1.6c2.9,0,4.4-2.4,4.4-5.5c0-3-1.6-5.1-4.2-5.1c-1.8,0-2.8,0.8-3.2,1.7v-6h-1.8V24.4z M42.6,48.8v-1.1l-1-0.1
	c-0.3,0-0.3-0.1-0.3-0.4v-5.3c0-2.8-1-3.6-3.8-3.6c-1.6,0-3.9,0.3-3.9,2.7l1.7,0.2c0-1.5,0.9-1.5,2.1-1.5c1.7,0,2,0.7,2,2.2V43
	l-2.7,0.2c-2.4,0.2-3.6,1.1-3.6,3.1c0,1,0.3,2.7,2.8,2.7c1.5,0,2.7-0.7,3.6-1.6h0.1l0.2,1.3L42.6,48.8L42.6,48.8z M41.5,20.7
	c0-2.3-1.4-3.3-3.9-3.3c-2.9,0-3.8,1.6-3.9,3h1.7c0.2-0.8,0.5-1.6,2.2-1.6c1.9,0,2.2,1.1,2.2,2v0.9h-1.7c-3,0-4.8,1-4.8,3.3
	c0,1.5,1,3.1,3.4,3.1c2,0,2.8-0.9,3.1-1.6c0,0.6,0.1,1.1,0.2,1.3h1.7c-0.1-0.3-0.1-1.3-0.1-2.2v-4.9H41.5z M35.6,69.3
	c0.4,0.4,0.9,0.6,1.5,0.6c0.5,0,1.1-0.2,1.7-0.5c0.4-0.2,0.8-0.5,1.3-1c0,0.4,0.1,0.7,0.3,1s0.5,0.4,1,0.4c0.4,0,0.7-0.1,1.1-0.4
	c0.2-0.2,0.5-0.4,0.7-0.6v-0.5c-0.2,0.2-0.4,0.3-0.5,0.3s-0.2,0.1-0.4,0.1c-0.3,0-0.4-0.1-0.5-0.4c-0.1-0.1-0.1-0.4-0.1-0.8v-3.9
	c0-0.9-0.1-1.5-0.4-2c-0.5-0.8-1.3-1.2-2.6-1.2c-1.1,0-1.9,0.2-2.5,0.7s-0.8,1-0.8,1.4c0,0.2,0.1,0.4,0.2,0.6
	c0.2,0.2,0.4,0.3,0.7,0.3c0.2,0,0.4,0,0.5-0.1c0.2-0.1,0.4-0.4,0.4-0.8c0-0.1,0-0.2,0-0.4s0-0.3,0-0.4c0-0.3,0.1-0.5,0.4-0.7
	c0.3-0.2,0.6-0.3,0.9-0.3c0.7,0,1.2,0.2,1.4,0.7c0.1,0.3,0.2,0.7,0.2,1.4v0.8c-1.8,0.7-3,1.2-3.6,1.6c-0.9,0.6-1.4,1.4-1.4,2.4
	C35,68.4,35.2,68.9,35.6,69.3z M64.7,22.5c0,2.5-1.1,4-2.9,4c-2.1,0-2.8-1.7-2.8-3.8c0-2.4,0.8-3.9,2.9-3.9
	C63.7,18.9,64.7,20.3,64.7,22.5z M60.1,40.9c0.7-0.5,1.8-1.1,2.9-1.1c1.4,0,2.4,1,2.4,3.6c0,2.5-0.7,4.1-2.6,4.1
	c-1.1,0-2.1-0.7-2.7-1.3C60.1,46.2,60.1,40.9,60.1,40.9z M27.3,42.9h-4.7l2.4-7L27.3,42.9z M46.6,21.2h3.1c2.4,0,3.3,1,3.3,2.5
	c0,1.7-1.2,2.6-3,2.6h-3.4C46.6,26.3,46.6,21.2,46.6,21.2z M47.7,47.3v-5.2h2.7c1.8,0,3.3,0.7,3.3,2.7c0,2.2-1.6,2.6-3.7,2.6
	L47.7,47.3L47.7,47.3z M23.2,22c1.1-3.1,1.9-5.5,2.2-6.7l0,0c0.3,1.1,1,3,2.4,6.7H23.2z M47.7,68.9c-0.2-0.1-0.3-0.3-0.3-0.7v-5
	c0.2,0,0.3,0,0.4,0c0.1,0,0.3,0,0.6,0c1.2,0,2.3,0.2,3.1,0.6c0.8,0.4,1.2,1.2,1.2,2.3c0,1.1-0.3,1.9-1,2.3S50.2,69,49.1,69
	C48.3,69.1,47.9,69,47.7,68.9z M46.6,19.7v-4.3h3.5c1.6,0,2.5,0.9,2.5,2.1c0,1.4-0.8,2.2-2.8,2.2H46.6z M24.1,64.6l2.3-5.5l2.3,5.5
	H24.1z M47.4,62.5V58c0-0.3,0-0.5,0.1-0.6s0.4-0.1,0.8-0.1c1.1,0,1.9,0.1,2.5,0.3c1,0.4,1.5,1.2,1.5,2.4c0,1-0.4,1.7-1.3,2.1
	c-0.4,0.2-1,0.3-1.7,0.3L47.4,62.5z M47.7,40.7v-4.9h2.1c2,0,3,0.5,3,2.3c0,2.1-1.7,2.6-3.3,2.6C49.5,40.7,47.7,40.7,47.7,40.7z
	 M39.8,23.2c0,1.8-0.3,3.5-2.8,3.5c-1.3,0-2-0.8-2-1.8c0-1.4,1.1-2,3.1-2h1.6v0.3H39.8z M39.5,46.1c-0.6,0.6-1.9,1.5-3.1,1.5
	c-0.9,0-1.4-0.4-1.4-1.5c0-1,0.5-1.5,2.2-1.7l2.3-0.2V46.1z M40,67.5c0,0.4-0.2,0.7-0.6,0.9s-0.8,0.4-1.2,0.4
	c-0.3,0-0.6-0.1-0.9-0.3c-0.4-0.3-0.6-0.7-0.6-1.3c0-0.7,0.5-1.4,1.4-2c0.5-0.3,1.1-0.6,1.9-0.8C40,64.4,40,67.5,40,67.5z M57,57.3
	c0.4,0,0.6,0.1,0.7,0.2c0.1,0.2,0.2,0.4,0.2,0.8v10.3c0,0.3,0.3,0.6,1,0.9s1.4,0.4,2.1,0.4c1.4,0,2.6-0.5,3.5-1.5s1.3-2.2,1.3-3.5
	c0-1.3-0.3-2.3-1-3.1s-1.5-1.2-2.5-1.2c-0.8,0-1.5,0.2-2.1,0.7c-0.3,0.3-0.6,0.6-0.8,0.9v-5.9v-0.1c0,0-0.4,0.1-1,0.3
	s-1.3,0.4-2,0.6v0.3L57,57.3z M59.5,63.4c0-0.4,0.2-0.8,0.7-1.1c0.4-0.3,0.9-0.4,1.3-0.4c0.9,0,1.6,0.4,2,1.2s0.6,1.7,0.6,2.7
	s-0.2,1.8-0.7,2.5s-1.1,1-2,1c-0.3,0-0.7-0.1-1.2-0.2c-0.4-0.1-0.7-0.4-0.8-0.7v-5H59.5z"/>
</svg>
